<?xml version="1.0" encoding="utf-8"?>
<!-- Svg Vector Icons : http://www.onlinewebfonts.com/icon -->
<!DOCTYPE svg PUBLIC "-//W3C//DTD SVG 1.1//EN" "http://www.w3.org/Graphics/SVG/1.1/DTD/svg11.dtd">
<svg version="1.1" xmlns="http://www.w3.org/2000/svg" xmlns:xlink="http://www.w3.org/1999/xlink" x="0px" y="0px" viewBox="0 0 1000 1000" enable-background="new 0 0 1000 1000" xml:space="preserve">
<metadata> Svg Vector Icons : http://www.onlinewebfonts.com/icon </metadata>
<g><path d="M500,10C229.4,10,10,229.4,10,500c0,270.6,219.4,490,490,490c270.6,0,490-219.4,490-490C990,229.4,770.6,10,500,10z M718.7,661.1c7.4,7.4,11.9,17.6,11.9,28.8c0,22.5-18.3,40.7-40.7,40.7c-11.2,0-21.4-4.5-28.8-11.9L500,557.5L338.9,718.7c-7.4,7.4-17.5,11.9-28.8,11.9c-22.5,0-40.7-18.2-40.7-40.7c0-11.2,4.6-21.4,11.9-28.8L442.5,500L281.3,338.9c-7.4-7.4-11.9-17.5-11.9-28.8c0-22.5,18.2-40.7,40.7-40.7c11.2,0,21.4,4.6,28.8,11.9L500,442.5l161.1-161.1c7.4-7.3,17.5-11.9,28.8-11.9c22.4,0,40.7,18.2,40.7,40.7c0,11.3-4.5,21.4-11.9,28.8L557.5,500L718.7,661.1z"/></g>
</svg>